<mxfile host="Electron" modified="2023-04-21T12:36:33.811Z" agent="Mozilla/5.0 (Windows NT 10.0; Win64; x64) AppleWebKit/537.36 (KHTML, like Gecko) draw.io/21.1.2 Chrome/106.0.5249.199 Electron/21.4.3 Safari/537.36" etag="YybVmqj_Aj5MhzhQvHew" version="21.1.2" type="device">
  <diagram name="第 1 页" id="U6_KyW38Mhnklkx_K_T0">
    <mxGraphModel dx="619" dy="557" grid="1" gridSize="10" guides="1" tooltips="1" connect="1" arrows="1" fold="1" page="1" pageScale="1" pageWidth="827" pageHeight="1169" math="0" shadow="0">
      <root>
        <mxCell id="0" />
        <mxCell id="1" parent="0" />
        <mxCell id="cw4osLcX6PKwRifZHOCg-1" value="&lt;font style=&quot;font-size: 15px;&quot;&gt;!(CommandType)#(FuncName1)*(FuncValue1) #(FuncName2)*(FuncValue2)?&lt;/font&gt;" style="text;align=center;verticalAlign=middle;resizable=0;points=[];autosize=1;strokeColor=none;fillColor=none;html=1;fontColor=default;" parent="1" vertex="1">
          <mxGeometry x="30" y="365" width="540" height="30" as="geometry" />
        </mxCell>
        <mxCell id="cw4osLcX6PKwRifZHOCg-2" value="" style="endArrow=none;html=1;rounded=0;" parent="1" edge="1">
          <mxGeometry width="50" height="50" relative="1" as="geometry">
            <mxPoint x="40" y="400" as="sourcePoint" />
            <mxPoint x="150" y="400" as="targetPoint" />
          </mxGeometry>
        </mxCell>
        <mxCell id="cw4osLcX6PKwRifZHOCg-3" value="命令类型" style="text;html=1;align=center;verticalAlign=middle;resizable=0;points=[];autosize=1;strokeColor=none;fillColor=none;" parent="1" vertex="1">
          <mxGeometry x="60" y="335" width="70" height="30" as="geometry" />
        </mxCell>
        <mxCell id="cw4osLcX6PKwRifZHOCg-4" value="功能名" style="text;html=1;align=center;verticalAlign=middle;resizable=0;points=[];autosize=1;strokeColor=none;fillColor=none;" parent="1" vertex="1">
          <mxGeometry x="180" y="335" width="60" height="30" as="geometry" />
        </mxCell>
        <mxCell id="cw4osLcX6PKwRifZHOCg-5" value="功能参数" style="text;html=1;align=center;verticalAlign=middle;resizable=0;points=[];autosize=1;strokeColor=none;fillColor=none;" parent="1" vertex="1">
          <mxGeometry x="470" y="335" width="70" height="30" as="geometry" />
        </mxCell>
        <mxCell id="cw4osLcX6PKwRifZHOCg-6" value="功能名" style="text;html=1;align=center;verticalAlign=middle;resizable=0;points=[];autosize=1;strokeColor=none;fillColor=none;" parent="1" vertex="1">
          <mxGeometry x="380" y="335" width="60" height="30" as="geometry" />
        </mxCell>
        <mxCell id="cw4osLcX6PKwRifZHOCg-8" value="功能参数" style="text;html=1;align=center;verticalAlign=middle;resizable=0;points=[];autosize=1;strokeColor=none;fillColor=none;" parent="1" vertex="1">
          <mxGeometry x="270" y="335" width="70" height="30" as="geometry" />
        </mxCell>
        <mxCell id="cw4osLcX6PKwRifZHOCg-9" value="DC/DCA" style="text;html=1;align=center;verticalAlign=middle;resizable=0;points=[];autosize=1;strokeColor=none;fillColor=none;" parent="1" vertex="1">
          <mxGeometry x="60" y="410" width="70" height="30" as="geometry" />
        </mxCell>
        <mxCell id="cw4osLcX6PKwRifZHOCg-10" value="FN/FNA" style="text;html=1;align=center;verticalAlign=middle;resizable=0;points=[];autosize=1;strokeColor=none;fillColor=none;" parent="1" vertex="1">
          <mxGeometry x="60" y="435" width="70" height="30" as="geometry" />
        </mxCell>
        <mxCell id="cw4osLcX6PKwRifZHOCg-11" value="GET/GETA" style="text;html=1;align=center;verticalAlign=middle;resizable=0;points=[];autosize=1;strokeColor=none;fillColor=none;" parent="1" vertex="1">
          <mxGeometry x="55" y="460" width="80" height="30" as="geometry" />
        </mxCell>
        <mxCell id="VdHFHp9h6n9BHOSuy7Xt-2" value="" style="endArrow=none;html=1;rounded=0;" edge="1" parent="1">
          <mxGeometry width="50" height="50" relative="1" as="geometry">
            <mxPoint x="170" y="400" as="sourcePoint" />
            <mxPoint x="250" y="400" as="targetPoint" />
          </mxGeometry>
        </mxCell>
        <mxCell id="VdHFHp9h6n9BHOSuy7Xt-3" value="" style="endArrow=none;html=1;rounded=0;" edge="1" parent="1">
          <mxGeometry width="50" height="50" relative="1" as="geometry">
            <mxPoint x="170" y="409.86" as="sourcePoint" />
            <mxPoint x="250" y="409.86" as="targetPoint" />
          </mxGeometry>
        </mxCell>
        <mxCell id="VdHFHp9h6n9BHOSuy7Xt-6" value="F_LIGHT" style="text;html=1;align=center;verticalAlign=middle;resizable=0;points=[];autosize=1;strokeColor=none;fillColor=none;" vertex="1" parent="1">
          <mxGeometry x="175" y="410" width="70" height="30" as="geometry" />
        </mxCell>
        <mxCell id="VdHFHp9h6n9BHOSuy7Xt-7" value="F_VOlUME" style="text;html=1;align=center;verticalAlign=middle;resizable=0;points=[];autosize=1;strokeColor=none;fillColor=none;" vertex="1" parent="1">
          <mxGeometry x="170" y="435" width="80" height="30" as="geometry" />
        </mxCell>
        <mxCell id="VdHFHp9h6n9BHOSuy7Xt-8" value="F_SWITCH" style="text;html=1;align=center;verticalAlign=middle;resizable=0;points=[];autosize=1;strokeColor=none;fillColor=none;" vertex="1" parent="1">
          <mxGeometry x="170" y="460" width="80" height="30" as="geometry" />
        </mxCell>
        <mxCell id="VdHFHp9h6n9BHOSuy7Xt-10" value="F_NULL" style="text;html=1;align=center;verticalAlign=middle;resizable=0;points=[];autosize=1;strokeColor=none;fillColor=none;" vertex="1" parent="1">
          <mxGeometry x="175" y="485" width="70" height="30" as="geometry" />
        </mxCell>
        <mxCell id="VdHFHp9h6n9BHOSuy7Xt-12" value="" style="endArrow=none;html=1;rounded=0;" edge="1" parent="1">
          <mxGeometry width="50" height="50" relative="1" as="geometry">
            <mxPoint x="270" y="399.66" as="sourcePoint" />
            <mxPoint x="350" y="399.66" as="targetPoint" />
          </mxGeometry>
        </mxCell>
        <mxCell id="VdHFHp9h6n9BHOSuy7Xt-13" value="" style="endArrow=none;html=1;rounded=0;" edge="1" parent="1">
          <mxGeometry width="50" height="50" relative="1" as="geometry">
            <mxPoint x="270" y="409.52000000000004" as="sourcePoint" />
            <mxPoint x="350" y="409.52000000000004" as="targetPoint" />
          </mxGeometry>
        </mxCell>
        <mxCell id="VdHFHp9h6n9BHOSuy7Xt-16" value="" style="endArrow=none;html=1;rounded=0;" edge="1" parent="1">
          <mxGeometry width="50" height="50" relative="1" as="geometry">
            <mxPoint x="270" y="419.52000000000004" as="sourcePoint" />
            <mxPoint x="350" y="419.52000000000004" as="targetPoint" />
          </mxGeometry>
        </mxCell>
        <mxCell id="VdHFHp9h6n9BHOSuy7Xt-17" value="" style="endArrow=none;html=1;rounded=0;" edge="1" parent="1">
          <mxGeometry width="50" height="50" relative="1" as="geometry">
            <mxPoint x="370" y="399.57" as="sourcePoint" />
            <mxPoint x="450" y="399.57" as="targetPoint" />
          </mxGeometry>
        </mxCell>
        <mxCell id="VdHFHp9h6n9BHOSuy7Xt-18" value="" style="endArrow=none;html=1;rounded=0;" edge="1" parent="1">
          <mxGeometry width="50" height="50" relative="1" as="geometry">
            <mxPoint x="370" y="409.43" as="sourcePoint" />
            <mxPoint x="450" y="409.43" as="targetPoint" />
          </mxGeometry>
        </mxCell>
        <mxCell id="VdHFHp9h6n9BHOSuy7Xt-19" value="" style="endArrow=none;html=1;rounded=0;" edge="1" parent="1">
          <mxGeometry width="50" height="50" relative="1" as="geometry">
            <mxPoint x="465" y="400" as="sourcePoint" />
            <mxPoint x="545" y="400" as="targetPoint" />
          </mxGeometry>
        </mxCell>
        <mxCell id="VdHFHp9h6n9BHOSuy7Xt-20" value="" style="endArrow=none;html=1;rounded=0;" edge="1" parent="1">
          <mxGeometry width="50" height="50" relative="1" as="geometry">
            <mxPoint x="465" y="409.86" as="sourcePoint" />
            <mxPoint x="545" y="409.86" as="targetPoint" />
          </mxGeometry>
        </mxCell>
        <mxCell id="VdHFHp9h6n9BHOSuy7Xt-21" value="" style="endArrow=none;html=1;rounded=0;" edge="1" parent="1">
          <mxGeometry width="50" height="50" relative="1" as="geometry">
            <mxPoint x="465" y="419.86" as="sourcePoint" />
            <mxPoint x="545" y="419.86" as="targetPoint" />
          </mxGeometry>
        </mxCell>
      </root>
    </mxGraphModel>
  </diagram>
</mxfile>
